<svg xmlns="http://www.w3.org/2000/svg" viewBox="0 0 100 100">
<rect width="100" height="100" rx="14" fill="#ffffff"/>
<g transform="translate(21.308,79.821) scale(0.08424,-0.08424)"><path d="M379.60052490234375 722Q445.60052490234375 722 488.10052490234375 702.5Q530.6005249023438 683 563.6005249023438 657Q583.6005249023438 642 594.1005249023438 653.5Q604.6005249023438 665 608.6005249023438 708H631.6005249023438Q629.6005249023438 670.3999633789062 628.6005249023438 616.4999084472656Q627.6005249023438 562.599853515625 627.6005249023438 473.999755859375H604.6005249023438Q598.2005615234375 517.9998168945312 591.6005249023438 545.8999633789062Q585.00048828125 573.8001098632812 574.6003723144531 594.000244140625Q564.2002563476562 614.2003784179688 546.2000122070312 633.0004272460938Q517.2001342773438 668.60009765625 474.9004211425781 684.9999694824219Q432.6007080078125 701.3998413085938 386.00103759765625 701.3998413085938Q335.40093994140625 701.3998413085938 296.4009704589844 675.499755859375Q257.4010009765625 649.5996704101562 230.5010986328125 602.6996154785156Q203.6011962890625 555.799560546875 189.60128784179688 491.8996276855469Q175.60137939453125 427.99969482421875 175.60137939453125 352Q175.60137939453125 273.600341796875 190.80126953125 210.10040283203125Q206.00115966796875 146.6004638671875 234.50103759765625 101.30038452148438Q263.00091552734375 56.00030517578125 303.6008605957031 31.7001953125Q344.2008056640625 7.40008544921875 394.00091552734375 7.40008544921875Q435.00067138671875 7.40008544921875 478.9003601074219 23.499969482421875Q522.800048828125 39.599853515625 549.3999633789062 74.19952392578125Q577.0003051757812 103.59954833984375 587.3004150390625 141.19976806640625Q597.6005249023438 178.79998779296875 604.6005249023438 244.000244140625H627.6005249023438Q627.6005249023438 151.60015869140625 628.6005249023438 95.10009765625Q629.6005249023438 38.60003662109375 631.6005249023438 0H608.6005249023438Q604.6005249023438 43 595.1005249023438 54.0Q585.6005249023438 65 563.6005249023438 51Q526.6005249023438 25 485.10052490234375 5.5Q443.60052490234375 -14 378.60052490234375 -14Q280.00030517578125 -14 205.80014038085938 29.0Q131.5999755859375 72 90.59988403320312 153.0Q49.59979248046875 234 49.59979248046875 348Q49.59979248046875 460 92.09988403320312 544.0Q134.5999755859375 628 208.80014038085938 675.0Q283.00030517578125 722 379.60052490234375 722Z" fill="#000000"/></g>
</svg>